<svg width="153" height="88" viewBox="0 0 153 88" fill="none" xmlns="http://www.w3.org/2000/svg">
<g clip-path="url(#clip0_6411_59232)">
<g opacity="0.4">
<path d="M145.499 3.62115H23.5449C19.4025 3.62115 16.044 7.00001 16.044 11.1674C16.044 15.3348 19.4025 18.7137 23.5449 18.7137H40.5215C44.6639 18.7137 48.0224 22.0925 48.0224 26.2599C48.0224 30.4273 44.6639 33.8062 40.5215 33.8062H7.5009C3.35855 33.8062 0 37.185 0 41.3524C0 45.5198 3.35855 48.8987 7.5009 48.8987H51.7181C55.8605 48.8987 59.219 52.2775 59.219 56.4449C59.219 60.6124 55.8605 63.9912 51.7181 63.9912H19.1704C15.0281 63.9912 11.6695 67.3701 11.6695 71.5375C11.6695 75.7049 15.0281 79.0837 19.1704 79.0837H126.066C130.208 79.0837 133.567 75.7049 133.567 71.5375C133.567 67.3701 130.208 63.9912 126.066 63.9912H112.146C112.26 63.9912 112.369 63.978 112.483 63.9736C108.498 63.7974 105.315 60.4978 105.315 56.4449C105.315 52.3921 108.494 49.0925 112.483 48.9163C112.369 48.9119 112.26 48.8987 112.146 48.8987H130.51C134.653 48.8987 138.011 45.5198 138.011 41.3524C138.011 37.185 134.653 33.8062 130.51 33.8062H105.989C106.09 33.8062 106.191 33.793 106.287 33.793C102.285 33.6344 99.0837 30.326 99.0837 26.2599C99.0837 22.1938 102.285 18.8855 106.287 18.7269C106.186 18.7269 106.09 18.7137 105.989 18.7137H145.495C149.637 18.7137 152.996 15.3348 152.996 11.1674C152.996 7.00001 149.637 3.62115 145.495 3.62115H145.499Z" fill="#DCF1FB"/>
</g>
<path d="M110.451 66.6828V11.0881C110.451 10.8634 110.363 10.6476 110.206 10.4934L100.896 1.12774C100.739 0.969148 100.524 0.881042 100.305 0.881042H48.7973C46.5335 0.881042 44.6987 2.72686 44.6987 5.00439V66.6828L50.4043 60.9427C50.7327 60.6123 51.2626 60.6123 51.591 60.9427L57.0514 66.4361C57.209 66.5947 57.4236 66.6828 57.6425 66.6828C57.8658 66.6828 58.0804 66.5947 58.2336 66.4361L63.694 60.9427C64.0224 60.6123 64.5523 60.6123 64.8807 60.9427L70.341 66.4361C70.4987 66.5947 70.7132 66.6828 70.9322 66.6828C71.1555 66.6828 71.3701 66.5947 71.5233 66.4361L76.9837 60.9427C77.3121 60.6123 77.8419 60.6123 78.1704 60.9427L83.6307 66.4361C83.7884 66.5947 84.0029 66.6828 84.2219 66.6828C84.4452 66.6828 84.6598 66.5947 84.813 66.4361L90.2734 60.9427C90.6018 60.6123 91.1316 60.6123 91.46 60.9427L96.9204 66.4361C97.0781 66.5947 97.2926 66.6828 97.5116 66.6828C97.7349 66.6828 97.9494 66.5947 98.1027 66.4361L103.563 60.9427C103.891 60.6123 104.421 60.6123 104.75 60.9427L110.455 66.6828H110.451Z" fill="white"/>
<path d="M100.301 0.881057C100.524 0.881057 100.739 0.969163 100.892 1.12775L110.201 10.4934C110.359 10.652 110.447 10.8678 110.447 11.0881V66.6828L104.741 60.9427C104.579 60.7797 104.364 60.696 104.15 60.696C103.935 60.696 103.721 60.7797 103.559 60.9427L98.0984 66.4361C97.9408 66.5947 97.7262 66.6828 97.5073 66.6828C97.2839 66.6828 97.0694 66.5947 96.9161 66.4361L91.4557 60.9427C91.2937 60.7797 91.0792 60.696 90.8646 60.696C90.65 60.696 90.4355 60.7797 90.2735 60.9427L84.8131 66.4361C84.6554 66.5947 84.4409 66.6828 84.2219 66.6828C83.9986 66.6828 83.7841 66.5947 83.6308 66.4361L78.1704 60.9427C78.0084 60.7797 77.7938 60.696 77.5793 60.696C77.3647 60.696 77.1502 60.7797 76.9882 60.9427L71.5278 66.4361C71.3701 66.5947 71.1556 66.6828 70.9366 66.6828C70.7133 66.6828 70.4988 66.5947 70.3455 66.4361L64.8851 60.9427C64.7231 60.7797 64.5085 60.696 64.294 60.696C64.0794 60.696 63.8649 60.7797 63.7028 60.9427L58.2425 66.4361C58.0848 66.5947 57.8703 66.6828 57.6513 66.6828C57.4324 66.6828 57.2134 66.5947 57.0602 66.4361L51.5998 60.9427C51.4378 60.7797 51.2232 60.696 51.0087 60.696C50.7941 60.696 50.5795 60.7797 50.4175 60.9427L44.7119 66.6828V5.00441C44.7119 2.72687 46.5467 0.881057 48.8105 0.881057H100.318M100.318 0H48.8105C46.0694 0 43.8362 2.24229 43.8362 5.00441V66.6828C43.8362 67.0396 44.0507 67.3612 44.3748 67.4978C44.4842 67.5418 44.5981 67.5639 44.7076 67.5639C44.9353 67.5639 45.1586 67.4758 45.325 67.304L51.0043 61.5903L56.4384 67.0573C56.7624 67.3833 57.1916 67.5639 57.6513 67.5639C58.1111 67.5639 58.5402 67.3833 58.8643 67.0573L64.2984 61.5903L69.7325 67.0573C70.0565 67.3833 70.4856 67.5639 70.9454 67.5639C71.4052 67.5639 71.8343 67.3833 72.1583 67.0573L77.5924 61.5903L83.0265 67.0573C83.3506 67.3833 83.7797 67.5639 84.2395 67.5639C84.6992 67.5639 85.1284 67.3833 85.4524 67.0573L90.8865 61.5903L96.3206 67.0573C96.6446 67.3833 97.0738 67.5639 97.5335 67.5639C97.9933 67.5639 98.4224 67.3833 98.7465 67.0573L104.181 61.5903L109.86 67.304C110.026 67.4714 110.25 67.5639 110.477 67.5639C110.591 67.5639 110.705 67.5418 110.81 67.4978C111.138 67.3612 111.349 67.0396 111.349 66.6828V11.0881C111.349 10.6256 111.169 10.1938 110.845 9.86784L101.514 0.506608C101.19 0.180617 100.761 0 100.301 0H100.318Z" fill="black"/>
<path d="M110.451 72.2687L104.154 65.9339L97.8575 72.2687H97.1613L90.8645 65.9339L84.5678 72.2687H83.8716L77.5748 65.9339L71.2781 72.2687H70.5819L64.2851 65.9339L57.9884 72.2687H57.2922L50.9955 65.9339L44.6987 72.2687V83.9515C44.6987 85.6079 46.0343 86.9515 47.6807 86.9515H107.465C109.111 86.9515 110.447 85.6079 110.447 83.9515V72.2687H110.451Z" fill="white"/>
<path d="M104.15 65.9339L110.447 72.2687V83.9515C110.447 85.6079 109.111 86.9515 107.465 86.9515H47.6808C46.0344 86.9515 44.6988 85.6079 44.6988 83.9515V72.2687L50.9956 65.9339L57.2923 72.2687H57.9885L64.2852 65.9339L70.582 72.2687H71.2782L77.5749 65.9339L83.8717 72.2687H84.5679L90.8646 65.9339L97.1613 72.2687H97.8576L104.154 65.9339M104.154 65.0529C103.922 65.0529 103.699 65.1454 103.537 65.3128L97.5117 71.3744L91.4864 65.3128C91.32 65.1454 91.1011 65.0529 90.869 65.0529C90.6369 65.0529 90.4136 65.1454 90.2516 65.3128L84.2263 71.3744L78.2011 65.3128C78.0347 65.1454 77.8158 65.0529 77.5837 65.0529C77.3516 65.0529 77.1283 65.1454 76.9663 65.3128L70.941 71.3744L64.9158 65.3128C64.7494 65.1454 64.5305 65.0529 64.2984 65.0529C64.0663 65.0529 63.843 65.1454 63.681 65.3128L57.6557 71.3744L51.6305 65.3128C51.4641 65.1454 51.2451 65.0529 51.0131 65.0529C50.781 65.0529 50.5577 65.1454 50.3957 65.3128L44.0989 71.6476C43.9325 71.815 43.8406 72.0352 43.8406 72.2687V83.9515C43.8406 86.0925 45.5702 87.8326 47.6983 87.8326H107.482C109.61 87.8326 111.34 86.0925 111.34 83.9515V72.2687C111.34 72.0352 111.248 71.8106 111.082 71.6476L104.785 65.3128C104.618 65.1454 104.4 65.0529 104.167 65.0529H104.154Z" fill="black"/>
<path d="M110.451 10.8854H100.507V0.881042L105.477 5.88104L110.451 10.8854Z" fill="#309EB7"/>
<path d="M100.507 0.881057L105.477 5.88106L110.447 10.8811H100.502V0.881057M100.502 0C100.389 0 100.275 0.0220264 100.17 0.0660793C99.8413 0.202643 99.6311 0.524229 99.6311 0.881057V10.8855C99.6311 11.37 100.025 11.7665 100.507 11.7665H110.451C110.806 11.7665 111.125 11.5507 111.261 11.2247C111.397 10.8943 111.323 10.5154 111.073 10.2643L106.103 5.26432L101.133 0.264317C100.967 0.0969163 100.743 0.00440529 100.516 0.00440529L100.502 0Z" fill="black"/>
<path d="M142.74 88H12.4052C12.1643 88 11.9673 87.8018 11.9673 87.5595C11.9673 87.3172 12.1643 87.119 12.4052 87.119H142.745C142.986 87.119 143.183 87.3172 143.183 87.5595C143.183 87.8018 142.986 88 142.745 88H142.74Z" fill="black"/>
<path opacity="0.1" d="M110.451 66.6828V11.0881C110.451 10.8634 110.364 10.6476 110.206 10.4934L107.115 7.38324V62.6652L101.409 56.9251C101.081 56.5947 100.551 56.5947 100.222 56.9251L94.7619 62.4185C94.6043 62.5771 94.3897 62.6652 94.1708 62.6652C93.9475 62.6652 93.7329 62.5771 93.5796 62.4185L88.1193 56.9251C87.7908 56.5947 87.261 56.5947 86.9326 56.9251L81.4722 62.4185C81.3146 62.5771 81.1 62.6652 80.8811 62.6652C80.6578 62.6652 80.4432 62.5771 80.2899 62.4185L74.8296 56.9251C74.5012 56.5947 73.9713 56.5947 73.6429 56.9251L68.1825 62.4185C68.0249 62.5771 67.8103 62.6652 67.5914 62.6652C67.3681 62.6652 67.1535 62.5771 67.0003 62.4185L61.5399 56.9251C61.2115 56.5947 60.6816 56.5947 60.3532 56.9251L54.8928 62.4185C54.7352 62.5771 54.5206 62.6652 54.3017 62.6652C54.0828 62.6652 53.8638 62.5771 53.7106 62.4185L48.2502 56.9251C47.9218 56.5947 47.3919 56.5947 47.0635 56.9251L44.699 59.3039V66.6828L50.4046 60.9427C50.733 60.6123 51.2628 60.6123 51.5912 60.9427L57.0516 66.4361C57.2092 66.5947 57.4238 66.6828 57.6427 66.6828C57.8617 66.6828 58.0806 66.5947 58.2339 66.4361L63.6943 60.9427C64.0227 60.6123 64.5525 60.6123 64.8809 60.9427L70.3413 66.4361C70.4989 66.5947 70.7135 66.6828 70.9324 66.6828C71.1557 66.6828 71.3703 66.5947 71.5236 66.4361L76.9839 60.9427C77.3124 60.6123 77.8422 60.6123 78.1706 60.9427L83.631 66.4361C83.7886 66.5947 84.0032 66.6828 84.2221 66.6828C84.4454 66.6828 84.66 66.5947 84.8133 66.4361L90.2736 60.9427C90.602 60.6123 91.1319 60.6123 91.4603 60.9427L96.9207 66.4361C97.0783 66.5947 97.2929 66.6828 97.5118 66.6828C97.7351 66.6828 97.9497 66.5947 98.1029 66.4361L103.563 60.9427C103.892 60.6123 104.422 60.6123 104.75 60.9427L110.456 66.6828H110.451Z" fill="black"/>
<g opacity="0.1">
<path d="M80.4915 69.2819H80.9031L77.5752 65.9339L77.3694 66.1409L80.4915 69.2819Z" fill="black"/>
<path d="M93.781 69.2819H94.1926L90.8647 65.9339L90.6545 66.1409L93.781 69.2819Z" fill="black"/>
<path d="M67.2017 69.2819H67.6133L64.2854 65.9339L64.0796 66.1409L67.2017 69.2819Z" fill="black"/>
<path d="M104.15 65.9339L103.944 66.1409L107.066 69.2819V80.9647C107.066 82.6211 105.731 83.9647 104.084 83.9647H44.699C44.7077 85.6167 46.0389 86.9515 47.6809 86.9515H107.465C109.111 86.9515 110.447 85.6079 110.447 83.9515V72.2687L104.15 65.9339Z" fill="black"/>
<path d="M53.9119 69.2819H54.3235L50.9956 65.9339L50.7898 66.1409L53.9119 69.2819Z" fill="black"/>
</g>
<path d="M90.7158 24.9603C92.636 24.9603 94.1926 23.3943 94.1926 21.4625C94.1926 19.5307 92.636 17.9647 90.7158 17.9647C88.7956 17.9647 87.239 19.5307 87.239 21.4625C87.239 23.3943 88.7956 24.9603 90.7158 24.9603Z" fill="#DCF1FB"/>
<path d="M90.7158 17.9647C92.6337 17.9647 94.1926 19.5286 94.1926 21.4625C94.1926 23.3965 92.6381 24.9603 90.7158 24.9603C88.7935 24.9603 87.239 23.3965 87.239 21.4625C87.239 19.5286 88.7935 17.9647 90.7158 17.9647ZM90.7158 17.0837C88.3162 17.0837 86.3633 19.0484 86.3633 21.4625C86.3633 23.8766 88.3162 25.8414 90.7158 25.8414C93.1154 25.8414 95.0684 23.8766 95.0684 21.4625C95.0684 19.0484 93.1154 17.0837 90.7158 17.0837Z" fill="black"/>
<path d="M60.7253 24.9603C62.6455 24.9603 64.2021 23.3943 64.2021 21.4625C64.2021 19.5307 62.6455 17.9647 60.7253 17.9647C58.8051 17.9647 57.2485 19.5307 57.2485 21.4625C57.2485 23.3943 58.8051 24.9603 60.7253 24.9603Z" fill="#DCF1FB"/>
<path d="M60.7253 17.9647C62.6433 17.9647 64.2021 19.5286 64.2021 21.4625C64.2021 23.3965 62.6476 24.9603 60.7253 24.9603C58.803 24.9603 57.2486 23.3965 57.2486 21.4625C57.2486 19.5286 58.803 17.9647 60.7253 17.9647ZM60.7253 17.0837C58.3257 17.0837 56.3728 19.0484 56.3728 21.4625C56.3728 23.8766 58.3257 25.8414 60.7253 25.8414C63.1249 25.8414 65.0779 23.8766 65.0779 21.4625C65.0779 19.0484 63.1249 17.0837 60.7253 17.0837Z" fill="black"/>
<path d="M84.1475 38.0529C82.6193 35.3965 79.7731 33.608 76.5021 33.608C73.2311 33.608 70.3849 35.3965 68.8567 38.0529" fill="#DCF1FB"/>
<path d="M83.7667 38.2731C82.2647 35.6652 79.4798 34.0485 76.5022 34.0485C73.5246 34.0485 70.7353 35.6696 69.2378 38.2731L68.4802 37.8326C70.1354 34.956 73.2137 33.1674 76.5066 33.1674C79.7994 33.1674 82.8734 34.956 84.5329 37.8326L83.7754 38.2731H83.7667Z" fill="black"/>
<path d="M109.232 41.7895L108.433 42.4618C107.113 43.5709 106.937 45.5462 108.04 46.8736L116.917 57.563C118.02 58.8904 119.983 59.0674 121.303 57.9583L122.102 57.286C123.422 56.1769 123.598 54.2016 122.495 52.8742L113.618 42.1848C112.515 40.8573 110.552 40.6804 109.232 41.7895Z" fill="#F9A050"/>
<path d="M111.226 41.0573C112.115 41.0573 113 41.4405 113.617 42.1806L122.497 52.8722C123.601 54.1982 123.426 56.1762 122.103 57.2819L121.302 57.9559C120.719 58.4449 120.01 58.6828 119.309 58.6828C118.421 58.6828 117.536 58.2996 116.919 57.5595L108.038 46.8678C106.935 45.5418 107.11 43.5639 108.432 42.4581L109.234 41.7841C109.816 41.2952 110.526 41.0573 111.226 41.0573ZM111.226 40.1762C110.293 40.1762 109.387 40.5066 108.669 41.1101L107.868 41.7841C106.182 43.2026 105.954 45.7401 107.364 47.4361L116.244 58.1278C117.006 59.0441 118.118 59.5683 119.305 59.5683C120.238 59.5683 121.144 59.2379 121.862 58.6344L122.664 57.9604C123.482 57.2731 123.982 56.3084 124.078 55.2379C124.174 54.1674 123.85 53.1278 123.167 52.3084L114.287 41.6167C113.525 40.7004 112.413 40.1762 111.226 40.1762Z" fill="black"/>
<path d="M106.37 36.2819L103.554 38.6489C102.792 39.2901 102.69 40.4319 103.327 41.1992L110.301 49.5966C110.939 50.3639 112.074 50.4662 112.836 49.8251L115.652 47.4581C116.415 46.8169 116.517 45.6751 115.879 44.9077L108.905 36.5104C108.268 35.7431 107.133 35.6407 106.37 36.2819Z" fill="#EA8A3B"/>
<path d="M105.775 48.8722C111.501 48.8722 116.144 44.2018 116.144 38.4405C116.144 32.6792 111.501 28.0088 105.775 28.0088C100.048 28.0088 95.4055 32.6792 95.4055 38.4405C95.4055 44.2018 100.048 48.8722 105.775 48.8722Z" fill="#DCF1FB"/>
<path d="M105.77 28.0088C108.739 28.0088 111.682 29.2819 113.731 31.7533C117.405 36.1762 116.818 42.7533 112.422 46.4493C110.482 48.0793 108.122 48.8766 105.779 48.8766C102.81 48.8766 99.8676 47.6035 97.8183 45.1321C94.1444 40.7092 94.7312 34.1321 99.1275 30.4361C101.067 28.8062 103.428 28.0088 105.77 28.0088ZM105.77 27.1277C103.143 27.1277 100.586 28.0617 98.5671 29.7621C93.8073 33.7621 93.1724 40.9119 97.1483 45.696C99.2896 48.2775 102.438 49.7533 105.783 49.7533C108.411 49.7533 110.968 48.8194 112.986 47.1189C117.746 43.1189 118.381 35.9692 114.405 31.185C112.264 28.6035 109.116 27.1277 105.77 27.1277Z" fill="black"/>
<path d="M105.775 46.4758C110.186 46.4758 113.761 42.8783 113.761 38.4405C113.761 34.0028 110.186 30.4053 105.775 30.4053C101.363 30.4053 97.7876 34.0028 97.7876 38.4405C97.7876 42.8783 101.363 46.4758 105.775 46.4758Z" fill="white"/>
<path d="M105.77 30.4053C108.056 30.4053 110.324 31.3877 111.905 33.2908C114.733 36.696 114.282 41.7665 110.898 44.6123C109.404 45.8678 107.587 46.4802 105.779 46.4802C103.493 46.4802 101.225 45.4978 99.6441 43.5947C96.8154 40.1894 97.2664 35.1189 100.651 32.2731C102.144 31.0176 103.962 30.4053 105.77 30.4053ZM105.77 29.5242C103.699 29.5242 101.68 30.2599 100.091 31.5991C98.2735 33.1278 97.1569 35.2731 96.9468 37.6476C96.7366 40.022 97.4547 42.3348 98.9742 44.163C100.664 46.1982 103.143 47.3612 105.779 47.3612C107.85 47.3612 109.869 46.6256 111.458 45.2863C113.275 43.7577 114.392 41.6123 114.602 39.2379C114.812 36.8634 114.094 34.5507 112.575 32.7225C110.885 30.6872 108.406 29.5242 105.77 29.5242Z" fill="black"/>
<path opacity="0.1" d="M106.072 30.4185C107.347 30.8855 108.516 31.6828 109.448 32.8018C112.277 36.2071 111.826 41.2775 108.441 44.1234C106.865 45.4494 104.929 46.0485 103.025 45.978C105.617 46.9339 108.63 46.5154 110.902 44.6079C114.287 41.7621 114.738 36.6916 111.909 33.2864C110.399 31.467 108.257 30.4978 106.077 30.4185H106.072Z" fill="black"/>
<path d="M35.3325 15.6828C35.2187 15.6828 35.1048 15.6388 35.0173 15.5507L28.3483 8.64759C28.1819 8.47138 28.1819 8.19385 28.3571 8.02645C28.5322 7.85905 28.8081 7.85905 28.9745 8.03526L35.6434 14.9383C35.8098 15.1146 35.8098 15.3921 35.6347 15.5595C35.5515 15.6432 35.4376 15.6828 35.3282 15.6828H35.3325Z" fill="black"/>
<path d="M28.5674 15.5859C28.4536 15.5859 28.3397 15.5419 28.2521 15.4538C28.0857 15.2776 28.0857 15 28.2609 14.8326L35.1225 8.12337C35.2976 7.95597 35.5735 7.95597 35.7399 8.13218C35.9063 8.30839 35.9063 8.58593 35.7311 8.75333L28.8696 15.4626C28.7864 15.5463 28.6725 15.5859 28.563 15.5859H28.5674Z" fill="black"/>
</g>
<defs>
<clipPath id="clip0_6411_59232">
<rect width="153" height="88" fill="white"/>
</clipPath>
</defs>
</svg>
